<svg id="visual" viewBox="0 0 1920 1080" width="1920" height="1080" xmlns="http://www.w3.org/2000/svg" xmlns:xlink="http://www.w3.org/1999/xlink" version="1.1"><rect x="0" y="0" width="1920" height="1080" fill="#27374D"></rect><path d="M0 684L120 572L240 653L360 512L480 666L600 649L720 607L840 565L960 580L1080 753L1200 722L1320 621L1440 538L1560 594L1680 581L1800 522L1920 730L1920 1081L1800 1081L1680 1081L1560 1081L1440 1081L1320 1081L1200 1081L1080 1081L960 1081L840 1081L720 1081L600 1081L480 1081L360 1081L240 1081L120 1081L0 1081Z" fill="#27374d"></path><path d="M0 700L120 793L240 718L360 667L480 752L600 590L720 639L840 733L960 702L1080 795L1200 758L1320 635L1440 643L1560 663L1680 759L1800 633L1920 668L1920 1081L1800 1081L1680 1081L1560 1081L1440 1081L1320 1081L1200 1081L1080 1081L960 1081L840 1081L720 1081L600 1081L480 1081L360 1081L240 1081L120 1081L0 1081Z" fill="#6c7b8c"></path><path d="M0 716L120 703L240 698L360 807L480 749L600 774L720 821L840 751L960 831L1080 758L1200 815L1320 701L1440 706L1560 799L1680 739L1800 765L1920 785L1920 1081L1800 1081L1680 1081L1560 1081L1440 1081L1320 1081L1200 1081L1080 1081L960 1081L840 1081L720 1081L600 1081L480 1081L360 1081L240 1081L120 1081L0 1081Z" fill="#bbc6d0"></path><path d="M0 818L120 885L240 767L360 868L480 815L600 807L720 898L840 850L960 794L1080 831L1200 836L1320 852L1440 886L1560 796L1680 870L1800 893L1920 811L1920 1081L1800 1081L1680 1081L1560 1081L1440 1081L1320 1081L1200 1081L1080 1081L960 1081L840 1081L720 1081L600 1081L480 1081L360 1081L240 1081L120 1081L0 1081Z" fill="#dde6ed"></path><path d="M0 943L120 900L240 851L360 834L480 810L600 833L720 879L840 944L960 881L1080 851L1200 948L1320 889L1440 813L1560 907L1680 929L1800 805L1920 866L1920 1081L1800 1081L1680 1081L1560 1081L1440 1081L1320 1081L1200 1081L1080 1081L960 1081L840 1081L720 1081L600 1081L480 1081L360 1081L240 1081L120 1081L0 1081Z" fill="#bbc6d0"></path><path d="M0 974L120 956L240 884L360 977L480 918L600 910L720 947L840 942L960 984L1080 902L1200 936L1320 990L1440 988L1560 913L1680 947L1800 889L1920 997L1920 1081L1800 1081L1680 1081L1560 1081L1440 1081L1320 1081L1200 1081L1080 1081L960 1081L840 1081L720 1081L600 1081L480 1081L360 1081L240 1081L120 1081L0 1081Z" fill="#6c7b8c"></path><path d="M0 1001L120 1000L240 958L360 959L480 1021L600 1034L720 967L840 990L960 992L1080 1010L1200 953L1320 992L1440 952L1560 953L1680 966L1800 953L1920 950L1920 1081L1800 1081L1680 1081L1560 1081L1440 1081L1320 1081L1200 1081L1080 1081L960 1081L840 1081L720 1081L600 1081L480 1081L360 1081L240 1081L120 1081L0 1081Z" fill="#27374d"></path></svg>